<svg xmlns="http://www.w3.org/2000/svg" viewBox="0 0 95 96"><defs><style>.a{fill:#222;}.b{fill:#fff;}</style></defs><g transform="translate(-62 -80.975)"><ellipse class="a" cx="47.5" cy="48" rx="47.5" ry="48" transform="translate(62 80.975)"/><path class="b" d="M111.137,104.733a2.7,2.7,0,0,0-3.756,0L81.2,129.678l1.557,1.621,7.368-7.031.032,24.207a4.319,4.319,0,0,0,4.334,4.3l29.568.016a4.248,4.248,0,0,0,4.3-4.27V124.269l7.4,7.031,1.557-1.621Zm2.777,45.861-9.31-.016v-13.5h9.31ZM126.1,148.54a2,2,0,0,1-2.055,2.023l-7.9.048V136.035a1.212,1.212,0,0,0-1.14-1.2H103.48a1.2,1.2,0,0,0-1.14,1.2v14.543l-7.882-.016a2.079,2.079,0,0,1-2.071-2.087l-.032-26.358,16.566-15.763a.455.455,0,0,1,.642,0L126.1,122.134Z" transform="translate(0 0)"/></g></svg>