<svg xmlns="http://www.w3.org/2000/svg" viewBox="0 0 95 96"><defs><style>.a{fill:#222;}.b{fill:#fff;}</style></defs><g transform="translate(-76 -59.885)"><ellipse class="a" cx="47.5" cy="48" rx="47.5" ry="48" transform="translate(76 59.885)"/><g transform="translate(91.5 91.5)"><path class="b" d="M56.3,60.6H39.468a1.268,1.268,0,0,0,0,2.537H56.212a1.3,1.3,0,0,0,1.268-1.268A1.229,1.229,0,0,0,56.3,60.6Z" transform="translate(-14.154 -36.897)"/><path class="b" d="M76.358,49.779l-.82-2.678c-1.639-5.356-11.31-8.83-17.21-8.83h-.492a.074.074,0,0,0-.082-.072l-5.737-5.211A17.946,17.946,0,0,0,40.38,28.572L15.22,28.5h0a3,3,0,0,0-3.032,2.244L9.156,41.238A4.742,4.742,0,0,0,8.5,43.554h0v9.119a1.194,1.194,0,0,0,1.229,1.086h2.049a1.094,1.094,0,1,0,0-2.171h-.82V43.771l.492-1.737a3.8,3.8,0,0,1,3.114-1.592H58.246c5.081,0,13.6,3.04,14.916,7.238l.82,2.678a1.3,1.3,0,0,1-.164.941,1.121,1.121,0,0,1-.983.434H72.67a1.094,1.094,0,1,0,0,2.171h.164A3.513,3.513,0,0,0,75.7,52.6,2.779,2.779,0,0,0,76.358,49.779ZM50.214,34.435l4.18,3.836H27.513V30.744H40.38A14.781,14.781,0,0,1,50.214,34.435Zm-37.781,4.2,2.131-7.382v-.145a.617.617,0,0,1,.656-.434h9.834v7.6H14.565A6.877,6.877,0,0,0,12.434,38.633Z" transform="translate(-8.5 -28.5)"/><path class="b" d="M24.934,55a6.934,6.934,0,1,0,6.934,6.934A6.966,6.966,0,0,0,24.934,55Zm0,11.416a4.4,4.4,0,1,1,4.4-4.4A4.478,4.478,0,0,1,24.934,66.416Z" transform="translate(-9.966 -36.869)"/><path class="b" d="M71.834,55a6.934,6.934,0,1,0,6.934,6.934A6.966,6.966,0,0,0,71.834,55Zm0,11.416a4.4,4.4,0,1,1,4.4-4.4A4.421,4.421,0,0,1,71.834,66.416Z" transform="translate(-19.372 -36.869)"/></g></g></svg>