<svg xmlns="http://www.w3.org/2000/svg" viewBox="0 0 95 96"><defs><style>.a{fill:#222;}.b{fill:#fff;}</style></defs><g transform="translate(-26 -819)"><g transform="translate(40 835.393)"><ellipse class="a" cx="47.5" cy="48" rx="47.5" ry="48" transform="translate(-14 -16.393)"/><g transform="translate(9.2 5.456)"><path class="b" d="M58,36.054A5.842,5.842,0,0,0,54.83,30.9l-7.416-3.924a4.264,4.264,0,0,0-4.007,0l-5.024,2.753A18.257,18.257,0,0,0,33,26.976a11.389,11.389,0,0,0,5.667-12.914,11.785,11.785,0,0,0-22.7,0,11.389,11.389,0,0,0,5.667,12.914A17.841,17.841,0,0,0,9.2,43.844v5.213a4.736,4.736,0,0,0,4.784,4.685h24.46a16.96,16.96,0,0,0,4.9,3.163l1.5.644.478.117.478-.117,1.734-.7A16.575,16.575,0,0,0,58,41.5ZM17.991,16.9a9.332,9.332,0,0,1,18.659-.039,9.232,9.232,0,0,1-9.27,9.175,9.432,9.432,0,0,1-6.636-2.655A9.043,9.043,0,0,1,17.991,16.9Zm-6.4,32.154V43.844A15.359,15.359,0,0,1,19.87,30.205a16.011,16.011,0,0,1,16.182.754A5.834,5.834,0,0,0,33.122,36v5.681A16.4,16.4,0,0,0,36.351,51.4H13.984A2.368,2.368,0,0,1,11.592,49.056ZM55.608,41.5a14.232,14.232,0,0,1-8.971,13.178l-1.256.527L44.3,54.737a14.286,14.286,0,0,1-8.791-13.061V36a3.5,3.5,0,0,1,1.854-3.1l7.176-3.865a1.827,1.827,0,0,1,1.734,0l7.416,3.865A3.505,3.505,0,0,1,55.608,36Z" transform="translate(-9.2 -5.456)"/><g transform="translate(31.298 33.039)"><path class="b" d="M69.823,61.853l-5.766,4.635L61.909,64a1.131,1.131,0,1,0-1.7,1.47l2.826,3.335.113.113h1.47l6.614-5.314a1.131,1.131,0,1,0-1.413-1.752Z" transform="translate(-59.84 -61.532)"/></g></g></g></g></svg>